<?xml version="1.0" encoding="UTF-8"?>
<svg xmlns="http://www.w3.org/2000/svg" xmlns:xlink="http://www.w3.org/1999/xlink" width="255.118pt" height="255.118pt" viewBox="0 0 255.118 255.118" version="1.2">
<g id="surface1">
<path style=" stroke:none;fill-rule:nonzero;fill:rgb(10.195923%,18.431091%,26.66626%);fill-opacity:1;" d="M 150.953125 117.242188 C 150.953125 119.683594 152.941406 121.671875 155.382812 121.671875 L 162.304688 121.671875 C 164.746094 121.671875 166.734375 119.683594 166.734375 117.242188 L 166.734375 113.871094 L 150.953125 113.871094 Z M 150.953125 117.242188 "></path>
<path style=" stroke:none;fill-rule:nonzero;fill:rgb(10.195923%,18.431091%,26.66626%);fill-opacity:1;" d="M 150.953125 111.160156 L 166.734375 111.160156 L 166.734375 103.609375 L 150.953125 103.609375 Z M 150.953125 111.160156 "></path>
<path style=" stroke:none;fill-rule:nonzero;fill:rgb(10.195923%,18.431091%,26.66626%);fill-opacity:1;" d="M 170.980469 39.921875 C 171.183594 39.921875 171.375 39.976562 171.546875 40.058594 C 170.617188 36.789062 167.636719 34.378906 164.074219 34.378906 L 126.375 34.378906 L 123.203125 39.921875 Z M 170.980469 39.921875 "></path>
<path style=" stroke:none;fill-rule:nonzero;fill:rgb(10.195923%,18.431091%,26.66626%);fill-opacity:1;" d="M 162.304688 92.71875 L 155.382812 92.71875 C 152.941406 92.71875 150.953125 94.707031 150.953125 97.148438 L 150.953125 100.898438 L 166.734375 100.898438 L 166.734375 97.148438 C 166.734375 94.707031 164.746094 92.71875 162.304688 92.71875 "></path>
<path style=" stroke:none;fill-rule:nonzero;fill:rgb(10.195923%,18.431091%,26.66626%);fill-opacity:1;" d="M 120.078125 39.921875 L 123.25 34.378906 L 107.039062 34.378906 L 110.207031 39.921875 Z M 120.078125 39.921875 "></path>
<path style=" stroke:none;fill-rule:nonzero;fill:rgb(10.195923%,18.431091%,26.66626%);fill-opacity:1;" d="M 127.140625 54.882812 L 103.144531 54.882812 L 103.144531 58.097656 L 127.140625 58.097656 Z M 127.140625 54.882812 "></path>
<path style=" stroke:none;fill-rule:nonzero;fill:rgb(10.195923%,18.431091%,26.66626%);fill-opacity:1;" d="M 103.144531 62.605469 C 103.144531 63.605469 103.960938 64.421875 104.960938 64.421875 L 125.328125 64.421875 C 126.328125 64.421875 127.140625 63.605469 127.140625 62.605469 L 127.140625 60.808594 L 103.144531 60.808594 Z M 103.144531 62.605469 "></path>
<path style=" stroke:none;fill-rule:nonzero;fill:rgb(10.195923%,18.431091%,26.66626%);fill-opacity:1;" d="M 127.140625 50.773438 C 127.140625 49.773438 126.328125 48.957031 125.328125 48.957031 L 104.960938 48.957031 C 103.960938 48.957031 103.148438 49.773438 103.148438 50.773438 L 103.148438 52.171875 L 127.140625 52.171875 Z M 127.140625 50.773438 "></path>
<path style=" stroke:none;fill-rule:nonzero;fill:rgb(10.195923%,18.431091%,26.66626%);fill-opacity:1;" d="M 174.9375 139.761719 C 174.9375 145.753906 170.066406 150.625 164.074219 150.625 L 90.539062 150.625 C 84.546875 150.625 79.671875 145.753906 79.671875 139.761719 L 79.671875 42.179688 C 79.671875 36.191406 84.546875 31.316406 90.539062 31.316406 L 164.074219 31.316406 C 170.066406 31.316406 174.9375 36.191406 174.9375 42.179688 Z M 168.628906 26.21875 L 85.984375 26.21875 C 80.003906 26.21875 75.152344 31.070312 75.152344 37.054688 L 75.152344 144.890625 C 75.152344 150.875 80.003906 155.726562 85.984375 155.726562 L 168.628906 155.726562 C 174.609375 155.726562 179.460938 150.875 179.460938 144.890625 L 179.460938 37.054688 C 179.460938 31.070312 174.609375 26.21875 168.628906 26.21875 "></path>
<path style=" stroke:none;fill-rule:nonzero;fill:rgb(10.195923%,18.431091%,26.66626%);fill-opacity:1;" d="M 94.753906 116.78125 C 94.011719 116.78125 93.390625 117.40625 93.390625 118.445312 C 93.390625 119.480469 94.011719 120.117188 94.753906 120.117188 C 95.480469 120.117188 96.097656 119.480469 96.097656 118.445312 C 96.097656 117.40625 95.480469 116.78125 94.753906 116.78125 "></path>
<path style=" stroke:none;fill-rule:nonzero;fill:rgb(10.195923%,18.431091%,26.66626%);fill-opacity:1;" d="M 89.421875 116.902344 L 88.769531 116.902344 L 88.769531 120 L 89.421875 120 C 90.417969 120 90.800781 119.386719 90.800781 118.441406 C 90.800781 117.503906 90.421875 116.902344 89.421875 116.902344 "></path>
<path style=" stroke:none;fill-rule:nonzero;fill:rgb(10.195923%,18.431091%,26.66626%);fill-opacity:1;" d="M 169.445312 117.242188 C 169.445312 121.179688 166.242188 124.382812 162.304688 124.382812 L 155.382812 124.382812 C 151.445312 124.382812 148.242188 121.179688 148.242188 117.242188 L 148.242188 97.148438 C 148.242188 93.210938 151.445312 90.007812 155.382812 90.007812 L 162.304688 90.007812 C 166.242188 90.007812 169.445312 93.210938 169.445312 97.148438 Z M 148.710938 129.871094 C 149.277344 129.382812 150.125 129.4375 150.625 130.003906 L 156.398438 136.652344 C 156.890625 137.21875 156.828125 138.074219 156.265625 138.566406 C 156.007812 138.789062 155.691406 138.898438 155.375 138.898438 C 154.996094 138.898438 154.621094 138.738281 154.351562 138.429688 L 148.578125 131.78125 C 148.085938 131.21875 148.144531 130.359375 148.710938 129.871094 M 164.441406 140.960938 L 165.019531 139.058594 C 165.238281 138.34375 165.988281 137.941406 166.710938 138.15625 C 167.429688 138.375 167.832031 139.132812 167.613281 139.847656 L 167.035156 141.753906 C 166.140625 144.664062 163.503906 146.617188 160.460938 146.617188 L 146.785156 146.617188 C 142.996094 146.617188 139.914062 143.535156 139.914062 139.746094 L 139.914062 127.003906 C 139.914062 126.253906 140.519531 125.648438 141.269531 125.648438 C 142.019531 125.648438 142.625 126.253906 142.625 127.003906 L 142.625 139.746094 C 142.625 142.042969 144.492188 143.90625 146.785156 143.90625 L 160.460938 143.90625 C 162.304688 143.90625 163.902344 142.722656 164.441406 140.960938 M 134.191406 134.242188 L 130.175781 142.078125 C 129.933594 142.546875 129.460938 142.816406 128.96875 142.816406 C 128.757812 142.816406 128.546875 142.769531 128.351562 142.667969 C 127.683594 142.324219 127.417969 141.507812 127.761719 140.84375 L 131.777344 133.003906 C 132.121094 132.335938 132.945312 132.074219 133.601562 132.417969 C 134.269531 132.757812 134.53125 133.574219 134.191406 134.242188 M 114.296875 121.058594 C 112.945312 121.0625 111.84375 120.152344 111.84375 118.441406 C 111.84375 116.757812 112.9375 115.839844 114.285156 115.839844 C 115.148438 115.839844 115.917969 116.257812 116.222656 116.78125 C 116.347656 116.996094 116.304688 117.292969 116.078125 117.4375 C 115.871094 117.566406 115.558594 117.539062 115.398438 117.332031 C 115.179688 117.042969 114.839844 116.792969 114.285156 116.792969 C 113.554688 116.792969 112.902344 117.34375 112.902344 118.441406 C 112.902344 119.539062 113.554688 120.117188 114.296875 120.117188 C 114.96875 120.117188 115.460938 119.664062 115.523438 119.109375 L 114.476562 119.109375 C 114.222656 119.109375 114.046875 118.890625 114.046875 118.652344 C 114.046875 118.410156 114.222656 118.195312 114.476562 118.195312 L 116.0625 118.195312 C 116.417969 118.195312 116.597656 118.425781 116.597656 118.722656 C 116.597656 119.886719 115.828125 121.054688 114.296875 121.058594 M 111.167969 120.523438 C 111.167969 120.824219 110.917969 121.015625 110.644531 121.015625 C 110.433594 121.015625 110.300781 120.941406 110.203125 120.816406 L 107.96875 117.902344 L 107.96875 120.511719 C 107.96875 120.820312 107.738281 121.015625 107.441406 121.015625 C 107.140625 121.015625 106.90625 120.820312 106.90625 120.511719 L 106.90625 116.390625 C 106.90625 116.074219 107.164062 115.882812 107.425781 115.882812 C 107.664062 115.882812 107.777344 115.964844 107.878906 116.097656 L 110.109375 118.992188 L 110.109375 116.390625 C 110.109375 116.078125 110.339844 115.882812 110.636719 115.882812 C 110.9375 115.882812 111.167969 116.078125 111.167969 116.390625 Z M 105.808594 91.488281 C 105.480469 91.488281 105.160156 91.375 104.898438 91.140625 L 99.496094 86.253906 C 98.941406 85.75 98.898438 84.894531 99.398438 84.339844 C 99.902344 83.789062 100.753906 83.742188 101.3125 84.242188 L 106.714844 89.128906 C 107.269531 89.632812 107.3125 90.488281 106.8125 91.042969 C 106.546875 91.339844 106.175781 91.488281 105.808594 91.488281 M 106.097656 120.976562 C 105.800781 121.082031 105.496094 120.945312 105.382812 120.664062 L 105.113281 119.992188 L 103.140625 119.992188 L 102.878906 120.664062 C 102.769531 120.953125 102.464844 121.082031 102.160156 120.976562 C 101.878906 120.878906 101.734375 120.582031 101.835938 120.351562 L 103.550781 116.265625 C 103.65625 116.019531 103.871094 115.882812 104.125 115.882812 C 104.402344 115.882812 104.609375 116.019531 104.707031 116.265625 L 106.410156 120.351562 C 106.507812 120.589844 106.371094 120.875 106.097656 120.976562 M 99.542969 121.058594 C 98.90625 121.058594 98.183594 120.878906 97.679688 120.261719 C 97.601562 120.164062 97.570312 120.039062 97.570312 119.933594 C 97.570312 119.660156 97.796875 119.460938 98.0625 119.460938 C 98.183594 119.460938 98.347656 119.511719 98.464844 119.628906 C 98.792969 119.957031 99.191406 120.128906 99.597656 120.128906 C 99.96875 120.128906 100.449219 119.980469 100.449219 119.546875 C 100.449219 119.183594 100.117188 119.023438 99.476562 118.867188 C 98.441406 118.617188 97.695312 118.222656 97.695312 117.289062 C 97.695312 116.257812 98.601562 115.839844 99.578125 115.839844 C 100.164062 115.839844 100.796875 116.015625 101.222656 116.429688 C 101.332031 116.539062 101.390625 116.679688 101.390625 116.816406 C 101.390625 117.054688 101.175781 117.292969 100.894531 117.292969 C 100.777344 117.292969 100.671875 117.242188 100.550781 117.140625 C 100.253906 116.894531 99.960938 116.769531 99.597656 116.769531 C 99.097656 116.769531 98.746094 116.925781 98.746094 117.253906 C 98.746094 117.640625 99.1875 117.777344 99.84375 117.941406 C 100.734375 118.164062 101.511719 118.558594 101.511719 119.488281 C 101.511719 120.648438 100.453125 121.058594 99.542969 121.058594 M 94.753906 121.058594 C 93.492188 121.058594 92.328125 120.171875 92.328125 118.441406 C 92.328125 116.71875 93.492188 115.839844 94.753906 115.839844 C 96.003906 115.839844 97.160156 116.71875 97.160156 118.441406 C 97.160156 120.171875 96.003906 121.058594 94.753906 121.058594 M 89.507812 120.941406 L 88.304688 120.941406 C 87.945312 120.941406 87.707031 120.703125 87.707031 120.34375 L 87.707031 116.554688 C 87.707031 116.199219 87.945312 115.960938 88.304688 115.960938 L 89.511719 115.960938 C 91.050781 115.960938 91.859375 116.996094 91.859375 118.441406 C 91.859375 119.890625 91.050781 120.941406 89.507812 120.941406 M 92.988281 44.628906 C 92.722656 44.925781 92.351562 45.074219 91.984375 45.074219 C 91.65625 45.074219 91.332031 44.960938 91.074219 44.726562 L 85.667969 39.839844 C 85.113281 39.335938 85.070312 38.480469 85.570312 37.925781 C 86.078125 37.371094 86.933594 37.328125 87.488281 37.828125 L 92.890625 42.714844 C 93.445312 43.21875 93.488281 44.074219 92.988281 44.628906 M 92.988281 53.398438 C 92.722656 53.691406 92.351562 53.84375 91.984375 53.84375 C 91.65625 53.84375 91.332031 53.730469 91.074219 53.496094 L 85.667969 48.609375 C 85.113281 48.105469 85.070312 47.25 85.570312 46.695312 C 86.078125 46.140625 86.933594 46.097656 87.488281 46.597656 L 92.890625 51.484375 C 93.445312 51.984375 93.488281 52.84375 92.988281 53.398438 M 115.933594 42.632812 L 113.867188 46.246094 L 125.328125 46.246094 C 127.820312 46.246094 129.851562 48.277344 129.851562 50.773438 L 129.851562 62.605469 C 129.851562 65.101562 127.820312 67.128906 125.328125 67.128906 L 104.960938 67.128906 C 102.464844 67.128906 100.4375 65.101562 100.4375 62.605469 L 100.4375 50.773438 C 100.4375 48.277344 102.464844 46.246094 104.960938 46.246094 L 110.742188 46.246094 L 112.808594 42.632812 L 97.371094 42.632812 C 96.625 42.632812 96.015625 42.027344 96.015625 41.277344 C 96.015625 40.53125 96.625 39.921875 97.371094 39.921875 L 107.082031 39.921875 L 103.914062 34.375 L 90.539062 34.375 C 86.234375 34.375 82.734375 37.875 82.734375 42.179688 L 82.734375 78.878906 L 119.511719 78.878906 L 119.511719 72.957031 L 103.835938 72.957031 C 101.511719 72.957031 99.207031 72.351562 97.183594 71.207031 L 95.335938 70.164062 C 94.222656 69.539062 93.332031 68.632812 92.667969 67.589844 C 91.867188 68.882812 90.785156 70.003906 89.457031 70.816406 L 86.28125 72.757812 C 86.0625 72.890625 85.816406 72.957031 85.578125 72.957031 C 85.121094 72.957031 84.675781 72.726562 84.417969 72.308594 C 84.027344 71.667969 84.230469 70.832031 84.871094 70.441406 L 88.042969 68.503906 C 90.144531 67.21875 91.449219 64.890625 91.449219 62.429688 L 91.449219 59.167969 C 91.449219 58.546875 90.949219 58.046875 90.328125 58.046875 L 85.574219 58.046875 C 84.828125 58.046875 84.21875 57.4375 84.21875 56.691406 C 84.21875 55.941406 84.828125 55.335938 85.574219 55.335938 L 90.328125 55.335938 C 92.441406 55.335938 94.160156 57.054688 94.160156 59.167969 L 94.160156 63.511719 C 94.160156 65.289062 95.121094 66.933594 96.664062 67.804688 L 98.511719 68.847656 C 100.132812 69.761719 101.976562 70.246094 103.835938 70.246094 L 134.171875 70.246094 C 134.917969 70.246094 135.527344 70.851562 135.527344 71.601562 C 135.527344 72.347656 134.917969 72.957031 134.171875 72.957031 L 122.222656 72.957031 L 122.222656 78.878906 L 136.429688 78.878906 C 137.175781 78.878906 137.785156 79.484375 137.785156 80.234375 C 137.785156 80.273438 137.765625 80.308594 137.761719 80.351562 C 137.765625 80.390625 137.785156 80.425781 137.785156 80.464844 L 137.785156 95.074219 L 146.054688 95.074219 C 146.804688 95.074219 147.410156 95.679688 147.410156 96.429688 C 147.410156 97.179688 146.804688 97.785156 146.054688 97.785156 L 138.246094 97.785156 L 146.21875 111.847656 C 146.589844 112.496094 146.359375 113.324219 145.710938 113.695312 C 145.058594 114.054688 144.230469 113.835938 143.863281 113.183594 L 137.785156 102.464844 L 137.785156 124.292969 C 137.785156 125.042969 137.175781 125.648438 136.429688 125.648438 C 135.679688 125.648438 135.074219 125.042969 135.074219 124.292969 L 135.074219 101.507812 L 127.019531 119 C 126.792969 119.496094 126.300781 119.789062 125.789062 119.789062 C 125.597656 119.789062 125.40625 119.75 125.222656 119.667969 C 124.542969 119.355469 124.246094 118.546875 124.558594 117.867188 L 133.804688 97.785156 L 125.789062 97.785156 C 125.039062 97.785156 124.433594 97.179688 124.433594 96.429688 C 124.433594 95.679688 125.039062 95.074219 125.789062 95.074219 L 135.054688 95.074219 L 135.074219 95.03125 L 135.074219 81.589844 L 122.222656 81.589844 L 122.222656 91.03125 C 122.222656 92.671875 121.472656 94.179688 120.167969 95.175781 C 119.246094 95.871094 118.15625 96.234375 117.039062 96.234375 C 116.566406 96.234375 116.089844 96.171875 115.625 96.039062 L 111.164062 94.792969 C 110.445312 94.589844 110.023438 93.84375 110.226562 93.121094 C 110.425781 92.40625 111.171875 91.980469 111.894531 92.183594 L 116.355469 93.429688 C 117.101562 93.636719 117.902344 93.492188 118.527344 93.015625 C 119.15625 92.539062 119.511719 91.816406 119.511719 91.03125 L 119.511719 81.589844 L 82.734375 81.589844 L 82.734375 139.761719 C 82.734375 144.066406 86.234375 147.566406 90.539062 147.566406 L 164.074219 147.566406 C 167.769531 147.566406 170.855469 144.980469 171.660156 141.527344 L 164.195312 133.214844 C 163.691406 132.65625 163.742188 131.800781 164.296875 131.300781 C 164.851562 130.796875 165.710938 130.84375 166.210938 131.402344 L 171.878906 137.714844 L 171.878906 42.277344 C 171.636719 42.492188 171.328125 42.632812 170.980469 42.632812 Z M 115.933594 42.632812 "></path>
<path style=" stroke:none;fill-rule:nonzero;fill:rgb(10.195923%,18.431091%,26.66626%);fill-opacity:1;" d="M 103.511719 119.0625 L 104.738281 119.0625 L 104.125 117.515625 Z M 103.511719 119.0625 "></path>
<path style=" stroke:none;fill-rule:nonzero;fill:rgb(10.195923%,18.431091%,26.66626%);fill-opacity:1;" d="M 51.328125 200.226562 C 58.082031 200.226562 60.925781 194.847656 60.925781 188.140625 C 60.925781 181.476562 58.082031 176.101562 51.328125 176.101562 L 44.621094 176.101562 L 44.621094 198.714844 C 44.621094 199.914062 45.066406 200.226562 46.085938 200.226562 Z M 44.933594 204.535156 C 43.910156 204.535156 42.398438 203.511719 41.46875 202.535156 C 40.53125 201.601562 39.644531 200.269531 39.644531 199.46875 L 39.644531 171.792969 L 51.105469 171.792969 C 60.394531 171.792969 65.945312 178.277344 65.945312 188.140625 C 65.945312 198.046875 60.394531 204.535156 51.105469 204.535156 Z M 44.933594 204.535156 "></path>
<path style=" stroke:none;fill-rule:nonzero;fill:rgb(10.195923%,18.431091%,26.66626%);fill-opacity:1;" d="M 83.980469 175.480469 C 77.140625 175.480469 73.765625 181.390625 73.765625 188.140625 C 73.765625 194.9375 77.140625 200.804688 83.980469 200.804688 C 90.6875 200.804688 94.066406 194.9375 94.066406 188.140625 C 94.066406 181.390625 90.6875 175.480469 83.980469 175.480469 M 83.933594 171.171875 C 92.6875 171.171875 99.128906 177.96875 99.128906 188.140625 C 99.128906 198.359375 92.6875 205.113281 83.933594 205.113281 C 75.183594 205.113281 68.742188 198.359375 68.742188 188.140625 C 68.742188 177.96875 75.183594 171.171875 83.933594 171.171875 "></path>
<path style=" stroke:none;fill-rule:nonzero;fill:rgb(10.195923%,18.431091%,26.66626%);fill-opacity:1;" d="M 101.355469 202.800781 C 100.734375 202.445312 100.332031 201.957031 100.953125 200.402344 C 101.664062 198.761719 102.195312 198.582031 102.90625 198.890625 C 104.90625 199.738281 108.242188 200.804688 111.171875 200.804688 C 116.191406 200.804688 119.523438 199.160156 119.523438 195.78125 C 119.523438 192.761719 116.371094 191.785156 111.039062 189.609375 C 108.59375 188.632812 106.019531 187.339844 104.242188 185.566406 C 102.730469 184.054688 101.84375 182.144531 101.84375 179.878906 C 101.84375 173.304688 107.574219 171.171875 113.480469 171.171875 C 117.167969 171.171875 120.855469 172.683594 122.367188 173.570312 C 123.035156 173.925781 123.433594 174.324219 122.765625 175.878906 C 122.097656 177.523438 121.566406 177.746094 120.8125 177.4375 C 118.945312 176.589844 116.28125 175.480469 113.347656 175.480469 C 109.394531 175.480469 106.859375 176.902344 106.859375 179.832031 C 106.859375 182.320312 109.082031 183.832031 113.792969 185.875 C 116.632812 187.117188 119.570312 188.140625 121.65625 189.828125 C 123.386719 191.25 124.542969 193.117188 124.542969 195.78125 C 124.542969 198.582031 123.296875 201.203125 120.8125 202.890625 C 118.632812 204.402344 115.480469 205.113281 111.171875 205.113281 C 107.039062 205.113281 102.863281 203.644531 101.355469 202.800781 "></path>
<path style=" stroke:none;fill-rule:nonzero;fill:rgb(10.195923%,18.431091%,26.66626%);fill-opacity:1;" d="M 140.136719 178.988281 L 134.9375 193.382812 L 145.15625 193.382812 Z M 148.933594 204.535156 L 146.621094 197.691406 L 133.472656 197.691406 L 131.074219 204.535156 L 125.964844 204.535156 L 138.046875 171.792969 L 142.046875 171.792969 L 154.042969 204.535156 Z M 148.933594 204.535156 "></path>
<path style=" stroke:none;fill-rule:nonzero;fill:rgb(10.195923%,18.431091%,26.66626%);fill-opacity:1;" d="M 157.371094 171.792969 L 163.859375 171.792969 L 177.628906 196.226562 L 177.804688 196.226562 L 177.804688 171.792969 L 182.785156 171.792969 L 182.785156 204.535156 L 177.097656 204.535156 L 162.523438 179.480469 L 162.347656 179.480469 L 162.347656 203.914062 C 162.347656 204.621094 161.460938 204.933594 159.859375 204.933594 C 158.257812 204.933594 157.371094 204.621094 157.371094 203.914062 Z M 157.371094 171.792969 "></path>
<path style=" stroke:none;fill-rule:nonzero;fill:rgb(10.195923%,18.431091%,26.66626%);fill-opacity:1;" d="M 214.59375 198.714844 C 214.59375 199.558594 213.925781 201.023438 212.503906 202.355469 C 210.953125 203.824219 209.570312 204.535156 208.550781 204.535156 L 203.753906 204.535156 C 193.402344 204.535156 186.785156 198.269531 186.785156 187.785156 C 186.785156 176.902344 194.824219 171.171875 204.242188 171.171875 C 207.929688 171.171875 210.683594 171.792969 212.859375 172.769531 C 213.660156 173.125 213.75 173.527344 213.128906 175.035156 C 212.460938 176.679688 212.0625 176.722656 211.304688 176.503906 C 209.171875 175.878906 206.910156 175.480469 204.289062 175.480469 C 196.335938 175.480469 191.800781 180.988281 191.800781 187.785156 C 191.800781 195.117188 196.199219 200.226562 203.707031 200.226562 L 208.148438 200.226562 C 209.261719 200.226562 209.617188 199.648438 209.617188 198.714844 L 209.617188 190.273438 L 201.664062 190.273438 L 201.664062 185.964844 L 214.59375 185.964844 Z M 214.59375 198.714844 "></path>
<path style=" stroke:none;fill-rule:nonzero;fill:rgb(10.195923%,18.431091%,26.66626%);fill-opacity:1;" d="M 107.515625 214.511719 L 107.515625 217.707031 C 107.515625 217.976562 107.660156 218.121094 107.910156 218.121094 L 115.542969 218.121094 C 115.953125 218.121094 116.023438 218.496094 116.023438 219.15625 C 116.023438 219.835938 115.953125 220.210938 115.542969 220.210938 L 111.824219 220.210938 L 111.824219 222.925781 L 117.71875 222.925781 C 118.203125 222.925781 118.277344 223.300781 118.277344 223.980469 C 118.277344 224.679688 118.203125 225.019531 117.71875 225.019531 L 102.925781 225.019531 L 102.925781 222.925781 L 109.355469 222.925781 L 109.355469 220.210938 L 107.320312 220.210938 C 106.855469 220.210938 106.195312 219.761719 105.800781 219.371094 C 105.425781 218.976562 105.050781 218.421875 105.050781 218.066406 L 105.050781 212.417969 L 115.363281 212.417969 C 115.773438 212.417969 115.84375 212.796875 115.84375 213.457031 C 115.84375 214.136719 115.773438 214.511719 115.363281 214.511719 Z M 107.515625 214.511719 "></path>
<path style=" stroke:none;fill-rule:nonzero;fill:rgb(10.195923%,18.431091%,26.66626%);fill-opacity:1;" d="M 146.773438 211.1875 L 149.203125 211.1875 L 149.203125 214.226562 L 151.898438 214.226562 L 151.898438 216.28125 L 149.203125 216.28125 L 149.203125 219.691406 C 149.203125 220.121094 148.734375 220.246094 147.984375 220.246094 C 147.234375 220.246094 146.773438 220.121094 146.773438 219.691406 Z M 146.378906 224.105469 C 146.378906 223.050781 145.609375 222.175781 144.339844 222.175781 C 143.070312 222.175781 142.304688 223.050781 142.304688 224.105469 C 142.304688 225.160156 143.070312 226.035156 144.339844 226.035156 C 145.609375 226.035156 146.378906 225.160156 146.378906 224.105469 M 139.871094 224.105469 C 139.871094 221.871094 141.875 220.191406 144.339844 220.191406 C 146.808594 220.191406 148.808594 221.871094 148.808594 224.105469 C 148.808594 226.339844 146.808594 228.019531 144.339844 228.019531 C 141.875 228.019531 139.871094 226.339844 139.871094 224.105469 M 140.695312 215.992188 C 139.890625 217.332031 138.640625 218.78125 137.605469 219.621094 C 137.261719 219.90625 136.941406 219.835938 136.371094 219.246094 C 135.816406 218.65625 135.585938 218.441406 136.03125 218.03125 C 137.210938 216.976562 138.230469 215.796875 138.78125 214.832031 C 139.210938 214.046875 139.320312 213.542969 139.320312 212.6875 L 139.320312 211.507812 L 141.855469 211.507812 L 141.855469 212.6875 C 141.855469 213.242188 141.964844 213.867188 142.230469 214.386719 C 142.855469 215.566406 144.125 216.941406 144.980469 217.726562 C 145.324219 218.066406 145.289062 218.316406 144.714844 218.941406 C 144.160156 219.53125 143.894531 219.640625 143.539062 219.316406 C 142.605469 218.511719 141.375 217.226562 140.695312 215.992188 "></path>
</g>
</svg>